0
SECTION
2
HEADER
9
$INSUNITS
70
4
9
$ACADVER
1
AC1014
9
$HANDSEED
5
FFFF
0
ENDSEC
0
SECTION
2
TABLES
0
TABLE
2
VPORT
5
8
100
AcDbSymbolTable
0
ENDTAB
0
TABLE
2
LTYPE
5
5
100
AcDbSymbolTable
0
LTYPE
5
14
100
AcDbSymbolTableRecord
100
AcDbLinetypeTableRecord
2
BYBLOCK
70
0
0
LTYPE
5
15
100
AcDbSymbolTableRecord
100
AcDbLinetypeTableRecord
2
BYLAYER
70
0
0
ENDTAB
0
TABLE
2
LAYER
5
2
100
AcDbSymbolTable
70
2
0
LAYER
5
50
100
AcDbSymbolTableRecord
100
AcDbLayerTableRecord
2
0
70
0
6
CONTINUOUS
0
ENDTAB
0
TABLE
2
STYLE
5
3
100
AcDbSymbolTable
70
1
0
STYLE
5
11
100
AcDbSymbolTableRecord
100
AcDbTextStyleTableRecord
2
STANDARD
70
0
0
ENDTAB
0
TABLE
2
VIEW
5
6
100
AcDbSymbolTable
70
0
0
ENDTAB
0
TABLE
2
UCS
5
7
100
AcDbSymbolTable
70
0
0
ENDTAB
0
TABLE
2
APPID
5
9
100
AcDbSymbolTable
70
2
0
APPID
5
12
100
AcDbSymbolTableRecord
100
AcDbRegAppTableRecord
2
ACAD
70
0
0
ENDTAB
0
TABLE
2
DIMSTYLE
5
A
100
AcDbSymbolTable
70
1
0
ENDTAB
0
TABLE
2
BLOCK_RECORD
5
1
100
AcDbSymbolTable
70
1
0
BLOCK_RECORD
5
1F
100
AcDbSymbolTableRecord
100
AcDbBlockTableRecord
2
*MODEL_SPACE
0
BLOCK_RECORD
5
1B
100
AcDbSymbolTableRecord
100
AcDbBlockTableRecord
2
*PAPER_SPACE
0
ENDTAB
0
ENDSEC
0
SECTION
2
BLOCKS
0
BLOCK
5
20
100
AcDbEntity
100
AcDbBlockBegin
2
*MODEL_SPACE
0
ENDBLK
5
21
100
AcDbEntity
100
AcDbBlockEnd
0
BLOCK
5
1C
100
AcDbEntity
100
AcDbBlockBegin
2
*PAPER_SPACE
0
ENDBLK
5
1D
100
AcDbEntity
100
AcDbBlockEnd
0
ENDSEC
0
SECTION
2
ENTITIES
0
ARC
5
100
100
AcDbEntity
8
0
100
AcDbCircle
10
158.16240361655767
20
-24.947080146319269
30
0
40
1.749999999999986
210
0
220
0
230
1
100
AcDbArc
50
134.89999999999861
51
314.89999999999856
0
LINE
5
101
100
AcDbEntity
8
0
100
AcDbLine
10
156.92712836787001
20
-23.707485430301318
30
0
11
157.98963812445646
21
-22.648678074283659
31
0
0
ARC
5
102
100
AcDbEntity
8
0
100
AcDbCircle
10
159.22491337314403
20
-23.888272790301677
30
0
40
1.7499999999999984
210
-0
220
0
230
1
100
AcDbArc
50
-45.099999999999334
51
134.89999999999509
0
LINE
5
103
100
AcDbEntity
8
0
100
AcDbLine
10
160.46018862183175
20
-25.127867506319596
30
0
11
159.39767886524533
21
-26.18667486233722
31
0
0
ARC
5
104
100
AcDbEntity
8
0
100
AcDbCircle
10
146.84871234933129
20
-24.927334009952506
30
0
40
1.749999999999992
210
0
220
0
230
1
100
AcDbArc
50
-135.10000000000025
51
44.899999146226754
0
LINE
5
105
100
AcDbEntity
8
0
100
AcDbLine
10
145.60911763331336
20
-26.162609258640195
30
0
11
144.55031027729572
21
-25.100099502053755
31
0
0
ARC
5
106
100
AcDbEntity
8
0
100
AcDbCircle
10
145.78990499331371
20
-23.864824253366123
30
0
40
1.7499999999999858
210
0
220
-0
230
1
100
AcDbArc
50
44.900000000000318
51
224.89999999999711
0
LINE
5
107
100
AcDbEntity
8
0
100
AcDbLine
10
147.02949970933162
20
-22.629549004678438
30
0
11
148.08830708375623
21
-23.692058779736218
31
0
0
CIRCLE
5
108
100
AcDbEntity
8
0
100
AcDbCircle
10
152.49568491476109
20
-30.594052711749061
30
0
40
4.0000000000000027
210
0
220
-0
230
1
0
CIRCLE
5
109
100
AcDbEntity
8
0
100
AcDbCircle
10
8.5347280578603524
20
-34.685050589130327
30
0
40
1.5500000000000003
210
0
220
-0
230
1
0
CIRCLE
5
110
100
AcDbEntity
8
0
100
AcDbCircle
10
29.875652143595502
20
-30.465561384552238
30
0
40
1.549999999999998
210
0
220
-0
230
1
0
LWPOLYLINE
5
111
100
AcDbEntity
8
0
100
AcDbPolyline
90
4
70
1
43
0.0
10
156.90306274576591
20
-37.496046643761915
42
-0.9999999925494194
10
159.38225219620881
20
-35.025496164857948
10
160.44105955222642
20
-36.088005921444285
42
-0.99999999999999989
10
157.96187012019055
20
-38.558556418819713
0
LWPOLYLINE
5
112
100
AcDbEntity
8
0
100
AcDbPolyline
90
4
70
1
43
0.0
10
147.00173170506585
20
-38.539427349214364
42
-0.99999999999999989
10
144.53118120769048
20
-36.06023791717854
10
145.59369096427685
20
-35.001430561160952
42
-0.99999999999999989
10
148.06424146165224
20
-37.48061999319679
0
LWPOLYLINE
5
113
100
AcDbEntity
8
0
100
AcDbPolyline
90
22
70
1
43
0.0
10
13.603628416191761
20
-25.024377391401821
42
-0.10333994738765818
10
21.613516362014504
20
-23.365609340838542
10
132.25267546568045
20
-23.558711297711596
42
0.23446410591136504
10
140.22293830461837
20
-19.621136954924228
42
-0.44699013108264429
10
150.62209571022331
20
-18.800247975392516
42
0.20248487945445201
10
152.07713118185663
20
-19.351841506978356
42
-0.019481811141067673
10
152.95347873814526
20
-19.353371023556328
42
0.20248487945445315
10
154.41043076594627
20
-18.806859874095334
42
-0.97509083630059357
10
164.28948965111758
20
-28.720463507211171
42
0.2024848794544542
10
163.7378961195318
20
-30.175498978844558
42
-0.019481811141065893
10
163.73636660295381
20
-31.051846535133095
42
0.20248487945445737
10
164.28287775241483
20
-32.508798562934167
42
-0.97509083630060012
10
154.36927411929892
20
-42.387857448105528
42
0.2024848794544554
10
152.91423864766551
20
-41.836263916519727
42
-0.019481811141063784
10
152.03789109137711
20
-41.834734399941766
42
0.20248487945445495
10
150.58093906357607
20
-42.381245549402777
42
-0.44699013108263769
10
140.18471045047505
20
-41.524061737492815
42
0.23446410591136274
10
132.22824086855803
20
-37.558689974497554
10
23.705528146932643
20
-37.369281917156215
42
0.103339947387659
10
15.695640201109914
20
-39.028049967719497
10
11.261453296191672
20
-40.956089306867668
42
-0.99999999999999989
10
5.8080028195290323
20
-28.414011871392994
0
ENDSEC
0
SECTION
2
OBJECTS
0
DICTIONARY
5
C
100
AcDbDictionary
3
ACAD_GROUP
350
D
3
ACAD_MLINESTYLE
350
17
0
DICTIONARY
5
D
100
AcDbDictionary
0
DICTIONARY
5
1A
330
C
100
AcDbDictionary
0
DICTIONARY
5
17
100
AcDbDictionary
0
ENDSEC
0
EOF
