0
SECTION
2
HEADER
9
$INSUNITS
70
4
9
$ACADVER
1
AC1014
9
$HANDSEED
5
FFFF
0
ENDSEC
0
SECTION
2
TABLES
0
TABLE
2
VPORT
5
8
100
AcDbSymbolTable
0
ENDTAB
0
TABLE
2
LTYPE
5
5
100
AcDbSymbolTable
0
LTYPE
5
14
100
AcDbSymbolTableRecord
100
AcDbLinetypeTableRecord
2
BYBLOCK
70
0
0
LTYPE
5
15
100
AcDbSymbolTableRecord
100
AcDbLinetypeTableRecord
2
BYLAYER
70
0
0
ENDTAB
0
TABLE
2
LAYER
5
2
100
AcDbSymbolTable
70
2
0
LAYER
5
50
100
AcDbSymbolTableRecord
100
AcDbLayerTableRecord
2
0
70
0
6
CONTINUOUS
0
ENDTAB
0
TABLE
2
STYLE
5
3
100
AcDbSymbolTable
70
1
0
STYLE
5
11
100
AcDbSymbolTableRecord
100
AcDbTextStyleTableRecord
2
STANDARD
70
0
0
ENDTAB
0
TABLE
2
VIEW
5
6
100
AcDbSymbolTable
70
0
0
ENDTAB
0
TABLE
2
UCS
5
7
100
AcDbSymbolTable
70
0
0
ENDTAB
0
TABLE
2
APPID
5
9
100
AcDbSymbolTable
70
2
0
APPID
5
12
100
AcDbSymbolTableRecord
100
AcDbRegAppTableRecord
2
ACAD
70
0
0
ENDTAB
0
TABLE
2
DIMSTYLE
5
A
100
AcDbSymbolTable
70
1
0
ENDTAB
0
TABLE
2
BLOCK_RECORD
5
1
100
AcDbSymbolTable
70
1
0
BLOCK_RECORD
5
1F
100
AcDbSymbolTableRecord
100
AcDbBlockTableRecord
2
*MODEL_SPACE
0
BLOCK_RECORD
5
1B
100
AcDbSymbolTableRecord
100
AcDbBlockTableRecord
2
*PAPER_SPACE
0
ENDTAB
0
ENDSEC
0
SECTION
2
BLOCKS
0
BLOCK
5
20
100
AcDbEntity
100
AcDbBlockBegin
2
*MODEL_SPACE
0
ENDBLK
5
21
100
AcDbEntity
100
AcDbBlockEnd
0
BLOCK
5
1C
100
AcDbEntity
100
AcDbBlockBegin
2
*PAPER_SPACE
0
ENDBLK
5
1D
100
AcDbEntity
100
AcDbBlockEnd
0
ENDSEC
0
SECTION
2
ENTITIES
0
LWPOLYLINE
5
100
100
AcDbEntity
8
0
100
AcDbPolyline
90
20
70
1
43
0.0
10
15.250000000000002
20
100.43653437799361
42
-0.41421356237309503
10
18.75
20
96.93653437799361
10
18.75
20
51.687159234675839
42
0.57501476241431926
10
23.978698269137816
20
48.643871161837524
10
24.354042893292124
20
48.857080554631089
42
-0.99996771149545938
10
31.269229025474985
20
36.684151541559949
10
23.904376568589015
20
32.500333043915866
42
-0.103339947387662
10
16.116108502257582
20
29.999793726654854
10
7.8744515972984486
20
29.133560680337048
42
-0.026185921569187299
10
7.1596652288082989
20
29.096100314102689
10
-7.1596652288082936
20
29.096100314102689
42
-0.026185921569187299
10
-7.8744515972984441
20
29.133560680337048
10
-16.116108502257585
20
29.999793726654854
42
-0.103339947387662
10
-23.904376568589019
20
32.500333043915873
10
-31.269229025492272
20
36.684151541569761
42
-0.99996771149374009
10
-24.354042893295787
20
48.857080554633171
10
-23.978698269137823
20
48.643871161837524
42
0.57501476241431926
10
-18.750000000000004
20
51.687159234675839
10
-18.75
20
96.93653437799361
42
-0.41421356237309481
10
-15.250000000000005
20
100.43653437799361
0
LWPOLYLINE
5
101
100
AcDbEntity
8
0
100
AcDbPolyline
90
4
70
1
43
0.0
10
-7.0000000000000018
20
92.43653437799361
10
-7.0000000000000036
20
79.43653437799361
42
0.99999999999999989
10
-5
20
79.43653437799361
10
-5.0000000000000053
20
92.43653437799361
42
0.99999999999999989
0
CIRCLE
5
102
100
AcDbEntity
8
0
100
AcDbCircle
10
-15.250000000000007
20
65.960102123308687
30
0
40
1.6000000000000014
210
0
220
-0
230
1
0
LWPOLYLINE
5
103
100
AcDbEntity
8
0
100
AcDbPolyline
90
4
70
1
43
0.0
10
6.9999999999999973
20
79.43653437799361
10
6.9999999999999947
20
92.43653437799361
42
0.99999999999999989
10
5
20
92.43653437799361
10
5.0000000000000089
20
79.43653437799361
42
0.99999999999999989
0
CIRCLE
5
104
100
AcDbEntity
8
0
100
AcDbCircle
10
15.250000000000004
20
65.960102123308687
30
0
40
1.6000000000000014
210
0
220
-0
230
1
0
CIRCLE
5
105
100
AcDbEntity
8
0
100
AcDbCircle
10
-10
20
55.960102123308687
30
0
40
1.1499999999999999
210
1.5777218104420236e-30
220
-4.9303806576313238e-32
230
1
0
CIRCLE
5
106
100
AcDbEntity
8
0
100
AcDbCircle
10
-15.25
20
50.710102123308687
30
0
40
1.6000000000000014
210
0
220
-0
230
1
0
CIRCLE
5
107
100
AcDbEntity
8
0
100
AcDbCircle
10
15.250000000000004
20
81.210102123308701
30
0
40
1.6000000000000014
210
0
220
-0
230
1
0
CIRCLE
5
108
100
AcDbEntity
8
0
100
AcDbCircle
10
10
20
55.960102123308687
30
0
40
1.1499999999999999
210
1.5777218104420236e-30
220
-4.9303806576313238e-32
230
1
0
CIRCLE
5
109
100
AcDbEntity
8
0
100
AcDbCircle
10
-10
20
75.960102123308687
30
0
40
1.1499999999999999
210
1.5777218104420236e-30
220
-4.9303806576313238e-32
230
1
0
CIRCLE
5
110
100
AcDbEntity
8
0
100
AcDbCircle
10
15.250000000000004
20
50.710102123308694
30
0
40
1.6000000000000014
210
0
220
-0
230
1
0
CIRCLE
5
111
100
AcDbEntity
8
0
100
AcDbCircle
10
-15.250000000000004
20
81.210102123308701
30
0
40
1.6000000000000014
210
0
220
-0
230
1
0
CIRCLE
5
112
100
AcDbEntity
8
0
100
AcDbCircle
10
10
20
75.960102123308687
30
0
40
1.150000000000001
210
0
220
-0
230
1
0
CIRCLE
5
113
100
AcDbEntity
8
0
100
AcDbCircle
10
7.1596652288082989
20
35.934298697062474
30
0
40
1.5500000000000025
210
-0
220
0
230
1
0
CIRCLE
5
114
100
AcDbEntity
8
0
100
AcDbCircle
10
15.250000000000002
20
96.93653437799361
30
0
40
1.5500000000000003
210
-0
220
0
230
1
0
CIRCLE
5
115
100
AcDbEntity
8
0
100
AcDbCircle
10
-15.250000000000004
20
96.93653437799361
30
-2.627434620609032e-45
40
1.5500000000000003
210
-0
220
0
230
1
0
CIRCLE
5
116
100
AcDbEntity
8
0
100
AcDbCircle
10
-7.1596652288082963
20
35.934298697062474
30
0
40
1.5500000000000025
210
-0
220
0
230
1
0
CIRCLE
5
117
100
AcDbEntity
8
0
100
AcDbCircle
10
-27.811635959385388
20
42.770616048096556
30
0
40
1.549999999999998
210
-0
220
0
230
1
0
CIRCLE
5
118
100
AcDbEntity
8
0
100
AcDbCircle
10
27.811635959385377
20
42.770616048096556
30
0
40
1.549999999999998
210
-0
220
0
230
1
0
ENDSEC
0
SECTION
2
OBJECTS
0
DICTIONARY
5
C
100
AcDbDictionary
3
ACAD_GROUP
350
D
3
ACAD_MLINESTYLE
350
17
0
DICTIONARY
5
D
100
AcDbDictionary
0
DICTIONARY
5
1A
330
C
100
AcDbDictionary
0
DICTIONARY
5
17
100
AcDbDictionary
0
ENDSEC
0
EOF
