0
SECTION
2
HEADER
9
$INSUNITS
70
4
9
$ACADVER
1
AC1014
9
$HANDSEED
5
FFFF
0
ENDSEC
0
SECTION
2
TABLES
0
TABLE
2
VPORT
5
8
100
AcDbSymbolTable
0
ENDTAB
0
TABLE
2
LTYPE
5
5
100
AcDbSymbolTable
0
LTYPE
5
14
100
AcDbSymbolTableRecord
100
AcDbLinetypeTableRecord
2
BYBLOCK
70
0
0
LTYPE
5
15
100
AcDbSymbolTableRecord
100
AcDbLinetypeTableRecord
2
BYLAYER
70
0
0
ENDTAB
0
TABLE
2
LAYER
5
2
100
AcDbSymbolTable
70
2
0
LAYER
5
50
100
AcDbSymbolTableRecord
100
AcDbLayerTableRecord
2
0
70
0
6
CONTINUOUS
0
ENDTAB
0
TABLE
2
STYLE
5
3
100
AcDbSymbolTable
70
1
0
STYLE
5
11
100
AcDbSymbolTableRecord
100
AcDbTextStyleTableRecord
2
STANDARD
70
0
0
ENDTAB
0
TABLE
2
VIEW
5
6
100
AcDbSymbolTable
70
0
0
ENDTAB
0
TABLE
2
UCS
5
7
100
AcDbSymbolTable
70
0
0
ENDTAB
0
TABLE
2
APPID
5
9
100
AcDbSymbolTable
70
2
0
APPID
5
12
100
AcDbSymbolTableRecord
100
AcDbRegAppTableRecord
2
ACAD
70
0
0
ENDTAB
0
TABLE
2
DIMSTYLE
5
A
100
AcDbSymbolTable
70
1
0
ENDTAB
0
TABLE
2
BLOCK_RECORD
5
1
100
AcDbSymbolTable
70
1
0
BLOCK_RECORD
5
1F
100
AcDbSymbolTableRecord
100
AcDbBlockTableRecord
2
*MODEL_SPACE
0
BLOCK_RECORD
5
1B
100
AcDbSymbolTableRecord
100
AcDbBlockTableRecord
2
*PAPER_SPACE
0
ENDTAB
0
ENDSEC
0
SECTION
2
BLOCKS
0
BLOCK
5
20
100
AcDbEntity
100
AcDbBlockBegin
2
*MODEL_SPACE
0
ENDBLK
5
21
100
AcDbEntity
100
AcDbBlockEnd
0
BLOCK
5
1C
100
AcDbEntity
100
AcDbBlockBegin
2
*PAPER_SPACE
0
ENDBLK
5
1D
100
AcDbEntity
100
AcDbBlockEnd
0
ENDSEC
0
SECTION
2
ENTITIES
0
CIRCLE
5
100
100
AcDbEntity
8
0
100
AcDbCircle
10
-9.9954596247609686
20
-13.468984158594564
30
0
40
1.6500000000000004
210
0
220
0
230
1
0
CIRCLE
5
101
100
AcDbEntity
8
0
100
AcDbCircle
10
-9.9954596247609686
20
6.531015841405436
30
0
40
1.6500000000000004
210
0
220
0
230
1
0
CIRCLE
5
102
100
AcDbEntity
8
0
100
AcDbCircle
10
10.004540375239031
20
-13.468984158594564
30
0
40
1.6500000000000004
210
0
220
0
230
1
0
CIRCLE
5
103
100
AcDbEntity
8
0
100
AcDbCircle
10
10.004540375239031
20
6.531015841405436
30
0
40
1.6500000000000004
210
0
220
0
230
1
0
LINE
5
104
100
AcDbEntity
8
0
100
AcDbLine
10
21
20
-22.275804892595321
30
0
11
20.999999999999996
21
17.008904697109966
31
0
0
ARC
5
105
100
AcDbEntity
8
0
100
AcDbCircle
10
30.999999999999986
20
17.008904697109973
30
0
40
9.9999999999999876
210
0
220
0
230
1
100
AcDbArc
50
119.64528549632115
51
180
0
LINE
5
106
100
AcDbEntity
8
0
100
AcDbLine
10
26.053710554863578
20
25.699947253957333
30
0
11
31.308173270334301
21
28.690393256194309
31
0
0
ARC
5
107
100
AcDbEntity
8
0
100
AcDbCircle
10
27.846024709773371
20
34.773676657158532
30
0
40
6.9994863805740035
210
-0
220
0
230
1
100
AcDbArc
50
-60.354714503678821
51
119.64528549632118
0
LINE
5
108
100
AcDbEntity
8
0
100
AcDbLine
10
24.383876149212441
20
40.856960058122752
30
0
11
18.953489857022831
21
37.768853934975198
31
0
0
ARC
5
109
100
AcDbEntity
8
0
100
AcDbCircle
10
9.066866178949244
20
55.154326958397888
30
0
40
20.000000000000092
210
-0
220
0
230
1
100
AcDbArc
50
276.00000000000006
51
299.62565751322029
0
LINE
5
110
100
AcDbEntity
8
0
100
AcDbLine
10
11.157435444302326
20
35.263889051032329
30
0
11
7.5342379910957664
21
34.883075653496505
31
0
0
ARC
5
111
100
AcDbEntity
8
0
100
AcDbCircle
10
5.4436687257429037
20
54.773513560857062
30
0
40
19.999999999995097
210
0
220
0
230
1
100
AcDbArc
50
269.99999999999932
51
276.00000000000085
0
LINE
5
112
100
AcDbEntity
8
0
100
AcDbLine
10
5.4436687257426684
20
34.773513560861964
30
0
11
-5.4436687257426719
21
34.773513560861964
31
0
0
ARC
5
113
100
AcDbEntity
8
0
100
AcDbCircle
10
-5.4436687257429037
20
54.773513560857062
30
0
40
19.999999999995097
210
0
220
0
230
1
100
AcDbArc
50
263.99999999999909
51
270.00000000000068
0
LINE
5
114
100
AcDbEntity
8
0
100
AcDbLine
10
-7.53423799109577
20
34.883075653496505
30
0
11
-11.15743544430233
21
35.263889051032336
31
0
0
ARC
5
115
100
AcDbEntity
8
0
100
AcDbCircle
10
-9.066866178949244
20
55.154326958397888
30
0
40
20.000000000000085
210
0
220
0
230
1
100
AcDbArc
50
240.37434248677971
51
264
0
LINE
5
116
100
AcDbEntity
8
0
100
AcDbLine
10
-18.953489857022831
20
37.768853934975198
30
0
11
-24.383876149212441
21
40.856960058122745
31
0
0
ARC
5
117
100
AcDbEntity
8
0
100
AcDbCircle
10
-27.846024709773371
20
34.773676657158532
30
0
40
6.9994863805739964
210
0
220
-0
230
1
100
AcDbArc
50
60.354714503678785
51
240.35471450367876
0
LINE
5
118
100
AcDbEntity
8
0
100
AcDbLine
10
-31.308173270334301
20
28.690393256194319
30
0
11
-26.053710554863578
21
25.699947253957333
31
0
0
ARC
5
119
100
AcDbEntity
8
0
100
AcDbCircle
10
-30.999999999999986
20
17.008904697109973
30
0
40
9.9999999999999858
210
-0
220
0
230
1
100
AcDbArc
50
0
51
60.354714503678849
0
LINE
5
120
100
AcDbEntity
8
0
100
AcDbLine
10
-21
20
17.008904697109962
30
0
11
-21
21
-22.275804892595321
31
0
0
ARC
5
121
100
AcDbEntity
8
0
100
AcDbCircle
10
-30.999999999999964
20
-22.275804892595325
30
0
40
9.9999999999999662
210
-0
220
0
230
1
100
AcDbArc
50
-66.489931126403732
51
0
0
LINE
5
122
100
AcDbEntity
8
0
100
AcDbLine
10
-27.010897776841158
20
-31.445704753182071
30
0
11
-32.596822429043037
21
-33.875701240305133
31
0
0
ARC
5
123
100
AcDbEntity
8
0
100
AcDbCircle
10
-29.817152140028039
20
-40.33535615494835
30
0
40
7.0323330788513587
210
0
220
0
230
1
100
AcDbArc
50
113.28281426905284
51
293.73732347813973
0
LINE
5
124
100
AcDbEntity
8
0
100
AcDbLine
10
-26.986327457329764
20
-46.77275781615711
30
0
11
-21.126577807467033
21
-44.195953568688537
31
0
0
ARC
5
125
100
AcDbEntity
8
0
100
AcDbCircle
10
-13.075694406589662
20
-62.503964833309162
30
0
40
19.999999999999957
210
0
220
-0
230
1
100
AcDbArc
50
89.999999999999986
51
113.73732347813971
0
LINE
5
126
100
AcDbEntity
8
0
100
AcDbLine
10
-13.075694406589658
20
-42.503964833309205
30
0
11
13.075694406589671
21
-42.503964833309205
31
0
0
ARC
5
127
100
AcDbEntity
8
0
100
AcDbCircle
10
13.075694406589671
20
-62.503964833309162
30
0
40
19.999999999999961
210
0
220
-0
230
1
100
AcDbArc
50
66.262676521860271
51
90
0
LINE
5
128
100
AcDbEntity
8
0
100
AcDbLine
10
21.126577807467047
20
-44.195953568688537
30
0
11
26.986327457329764
21
-46.77275781615711
31
0
0
ARC
5
129
100
AcDbEntity
8
0
100
AcDbCircle
10
29.817152140028039
20
-40.33535615494835
30
0
40
7.0323330788513569
210
0
220
0
230
1
100
AcDbArc
50
-113.73732347813973
51
66.717185730947165
0
LINE
5
130
100
AcDbEntity
8
0
100
AcDbLine
10
32.596822429043037
20
-33.875701240305133
30
0
11
27.010897776841155
21
-31.44570475318206
31
0
0
ARC
5
131
100
AcDbEntity
8
0
100
AcDbCircle
10
30.999999999999972
20
-22.275804892595321
30
0
40
9.999999999999968
210
0
220
0
230
1
100
AcDbArc
50
180
51
246.48993112640369
0
CIRCLE
5
132
100
AcDbEntity
8
0
100
AcDbCircle
10
27.853613758304601
20
34.760342066758497
30
0
40
1.5484964964348078
210
0
220
-0
230
1
0
CIRCLE
5
133
100
AcDbEntity
8
0
100
AcDbCircle
10
7.2118404725351457
20
27.923017390925118
30
0
40
1.550852367150618
210
0
220
-0
230
1
0
CIRCLE
5
134
100
AcDbEntity
8
0
100
AcDbCircle
10
-7.2118404725351457
20
27.923017390925118
30
0
40
1.550852367150618
210
0
220
-0
230
1
0
CIRCLE
5
135
100
AcDbEntity
8
0
100
AcDbCircle
10
-27.853613758304601
20
34.760342066758497
30
0
40
1.5484964964348078
210
0
220
-0
230
1
0
CIRCLE
5
136
100
AcDbEntity
8
0
100
AcDbCircle
10
-15.245459624760976
20
11.781015841405434
30
0
40
1.6500000000000004
210
0
220
0
230
1
0
CIRCLE
5
137
100
AcDbEntity
8
0
100
AcDbCircle
10
15.254540375239037
20
11.781015841405434
30
0
40
1.6500000000000004
210
0
220
0
230
1
0
CIRCLE
5
138
100
AcDbEntity
8
0
100
AcDbCircle
10
-15.245459624760976
20
-18.718984158594559
30
0
40
1.6499999999999981
210
0
220
0
230
1
0
CIRCLE
5
139
100
AcDbEntity
8
0
100
AcDbCircle
10
15.254540375239037
20
-18.718984158594559
30
0
40
1.6499999999999981
210
0
220
0
230
1
0
LWPOLYLINE
5
140
100
AcDbEntity
8
0
100
AcDbPolyline
90
8
70
1
43
0.0
10
-3.9954596247609704
20
0.53101584140543778
10
-3.9954596247609704
20
-7.4689841585945649
42
0.41421356237309503
10
-1.9954596247609711
20
-9.468984158594564
10
2.0045403752390314
20
-9.468984158594564
42
0.41421356237309509
10
4.0045403752390314
20
-7.4689841585945649
10
4.0045403752390305
20
0.53101584140543634
42
0.41421356237309503
10
2.0045403752390305
20
2.5310158414054373
10
-1.9954596247609708
20
2.5310158414054373
42
0.41421356237309509
0
CIRCLE
5
141
100
AcDbEntity
8
0
100
AcDbCircle
10
8.5324744985789991
20
-35.68309587477556
30
0
40
1.5527488120280752
210
0
220
-0
230
1
0
CIRCLE
5
142
100
AcDbEntity
8
0
100
AcDbCircle
10
-29.791574943186401
20
-40.324229528231115
30
0
40
1.5450748393746849
210
0
220
-0
230
1
0
CIRCLE
5
143
100
AcDbEntity
8
0
100
AcDbCircle
10
-8.5324744985789991
20
-35.68309587477556
30
0
40
1.5527488120280752
210
0
220
-0
230
1
0
CIRCLE
5
144
100
AcDbEntity
8
0
100
AcDbCircle
10
29.791574943186401
20
-40.324229528231122
30
0
40
1.5450748393746849
210
0
220
-0
230
1
0
ENDSEC
0
SECTION
2
OBJECTS
0
DICTIONARY
5
C
100
AcDbDictionary
3
ACAD_GROUP
350
D
3
ACAD_MLINESTYLE
350
17
0
DICTIONARY
5
D
100
AcDbDictionary
0
DICTIONARY
5
1A
330
C
100
AcDbDictionary
0
DICTIONARY
5
17
100
AcDbDictionary
0
ENDSEC
0
EOF
