0
SECTION
2
HEADER
9
$INSUNITS
70
4
9
$ACADVER
1
AC1014
9
$HANDSEED
5
FFFF
0
ENDSEC
0
SECTION
2
TABLES
0
TABLE
2
VPORT
5
8
100
AcDbSymbolTable
0
ENDTAB
0
TABLE
2
LTYPE
5
5
100
AcDbSymbolTable
0
LTYPE
5
14
100
AcDbSymbolTableRecord
100
AcDbLinetypeTableRecord
2
BYBLOCK
70
0
0
LTYPE
5
15
100
AcDbSymbolTableRecord
100
AcDbLinetypeTableRecord
2
BYLAYER
70
0
0
ENDTAB
0
TABLE
2
LAYER
5
2
100
AcDbSymbolTable
70
2
0
LAYER
5
50
100
AcDbSymbolTableRecord
100
AcDbLayerTableRecord
2
0
70
0
6
CONTINUOUS
0
ENDTAB
0
TABLE
2
STYLE
5
3
100
AcDbSymbolTable
70
1
0
STYLE
5
11
100
AcDbSymbolTableRecord
100
AcDbTextStyleTableRecord
2
STANDARD
70
0
0
ENDTAB
0
TABLE
2
VIEW
5
6
100
AcDbSymbolTable
70
0
0
ENDTAB
0
TABLE
2
UCS
5
7
100
AcDbSymbolTable
70
0
0
ENDTAB
0
TABLE
2
APPID
5
9
100
AcDbSymbolTable
70
2
0
APPID
5
12
100
AcDbSymbolTableRecord
100
AcDbRegAppTableRecord
2
ACAD
70
0
0
ENDTAB
0
TABLE
2
DIMSTYLE
5
A
100
AcDbSymbolTable
70
1
0
ENDTAB
0
TABLE
2
BLOCK_RECORD
5
1
100
AcDbSymbolTable
70
1
0
BLOCK_RECORD
5
1F
100
AcDbSymbolTableRecord
100
AcDbBlockTableRecord
2
*MODEL_SPACE
0
BLOCK_RECORD
5
1B
100
AcDbSymbolTableRecord
100
AcDbBlockTableRecord
2
*PAPER_SPACE
0
ENDTAB
0
ENDSEC
0
SECTION
2
BLOCKS
0
BLOCK
5
20
100
AcDbEntity
100
AcDbBlockBegin
2
*MODEL_SPACE
0
ENDBLK
5
21
100
AcDbEntity
100
AcDbBlockEnd
0
BLOCK
5
1C
100
AcDbEntity
100
AcDbBlockBegin
2
*PAPER_SPACE
0
ENDBLK
5
1D
100
AcDbEntity
100
AcDbBlockEnd
0
ENDSEC
0
SECTION
2
ENTITIES
0
LWPOLYLINE
5
100
100
AcDbEntity
8
0
100
AcDbPolyline
90
22
70
1
43
0.0
10
-5
20
3.5000000000000004
10
-0.99999999999999534
20
3.5000000000000009
42
0.41421356237309503
10
3.0000000000000027
20
7.5
10
2.9999999999999987
20
23.000000000000007
42
0.41421356237309503
10
-0.999999999999997
20
27
10
-5
20
27
42
-0.99999999999999989
10
-5
20
34
10
-2.5505102572168203
20
34
10
-1.5505102572168195
20
33
10
26.103560085134632
20
33
10
27.103560085134632
20
34
42
-0.26872750377968863
10
31.440929163524306
20
31.487414215169874
10
34.85615835487279
20
25.532189950618896
42
-0.13091395119463389
10
35.320000000000007
20
23.791000000000007
10
35.320000000000007
20
6.7090000000000032
42
-0.13091395119463606
10
34.856158354872775
20
4.9678100493810886
10
31.440929163524302
20
-0.98741421516987171
42
-0.26872750377968757
10
27.103560085134632
20
-3.5
10
26.103560085134632
20
-2.4999999999999996
10
-1.5505102572168195
20
-2.4999999999999996
10
-2.5505102572168212
20
-3.5000000000000004
10
-5
20
-3.5000000000000004
42
-0.99999999999999989
0
LWPOLYLINE
5
101
100
AcDbEntity
8
0
100
AcDbPolyline
90
8
70
1
43
0.0
10
11.609999999999999
20
29.250000000000004
10
11.609999999999999
20
1.2500000000000089
42
0.41421356237309437
10
12.610000000000001
20
0.25000000000000633
10
13.610000000000003
20
0.25000000000000577
42
0.41421356237309342
10
14.610000000000003
20
1.2500000000000044
10
14.610000000000003
20
29.250000000000004
42
0.41421356237309698
10
13.610000000000003
20
30.250000000000004
10
12.610000000000001
20
30.250000000000004
42
0.41421356237309176
0
CIRCLE
5
102
100
AcDbEntity
8
0
100
AcDbCircle
10
-5
20
0
30
0
40
1.6000000000000003
210
0
220
-0
230
1
0
CIRCLE
5
103
100
AcDbEntity
8
0
100
AcDbCircle
10
-5
20
30.500000000000004
30
0
40
1.6000000000000003
210
0
220
-0
230
1
0
CIRCLE
5
104
100
AcDbEntity
8
0
100
AcDbCircle
10
31.820000000000004
20
6.7090000000000005
30
0
40
1.6000000000000014
210
0
220
-0
230
1
0
LWPOLYLINE
5
105
100
AcDbEntity
8
0
100
AcDbPolyline
90
8
70
1
43
0.0
10
24.610000000000003
20
0.25000000000000466
42
-0.41421356237309598
10
23.610000000000003
20
1.2500000000000089
10
23.610000000000007
20
29.250000000000004
42
-0.4142135623730937
10
24.610000000000003
20
30.250000000000004
10
25.610000000000003
20
30.250000000000004
42
-0.41421356237308982
10
26.610000000000007
20
29.250000000000004
10
26.610000000000007
20
1.2500000000000047
42
-0.41421356237309165
10
25.610000000000003
20
0.25000000000000577
0
CIRCLE
5
106
100
AcDbEntity
8
0
100
AcDbCircle
10
31.820000000000004
20
23.791000000000004
30
0
40
1.6000000000000014
210
0
220
-0
230
1
0
LWPOLYLINE
5
107
100
AcDbEntity
8
0
100
AcDbPolyline
90
8
70
1
43
0.0
10
17.610000000000003
20
29.250000000000007
42
-0.41421356237309048
10
18.610000000000003
20
30.250000000000004
10
19.610000000000003
20
30.250000000000004
42
-0.41421356237309698
10
20.610000000000003
20
29.250000000000004
10
20.610000000000003
20
1.2500000000000047
42
-0.41421356237309231
10
19.610000000000003
20
0.25000000000000588
10
18.610000000000003
20
0.25000000000000577
42
-0.41421356237309437
10
17.609999999999999
20
1.2500000000000089
0
ENDSEC
0
SECTION
2
OBJECTS
0
DICTIONARY
5
C
100
AcDbDictionary
3
ACAD_GROUP
350
D
3
ACAD_MLINESTYLE
350
17
0
DICTIONARY
5
D
100
AcDbDictionary
0
DICTIONARY
5
1A
330
C
100
AcDbDictionary
0
DICTIONARY
5
17
100
AcDbDictionary
0
ENDSEC
0
EOF
