0
SECTION
2
HEADER
9
$INSUNITS
70
4
9
$ACADVER
1
AC1014
9
$HANDSEED
5
FFFF
0
ENDSEC
0
SECTION
2
TABLES
0
TABLE
2
VPORT
5
8
100
AcDbSymbolTable
0
ENDTAB
0
TABLE
2
LTYPE
5
5
100
AcDbSymbolTable
0
LTYPE
5
14
100
AcDbSymbolTableRecord
100
AcDbLinetypeTableRecord
2
BYBLOCK
70
0
0
LTYPE
5
15
100
AcDbSymbolTableRecord
100
AcDbLinetypeTableRecord
2
BYLAYER
70
0
0
ENDTAB
0
TABLE
2
LAYER
5
2
100
AcDbSymbolTable
70
2
0
LAYER
5
50
100
AcDbSymbolTableRecord
100
AcDbLayerTableRecord
2
0
70
0
6
CONTINUOUS
0
ENDTAB
0
TABLE
2
STYLE
5
3
100
AcDbSymbolTable
70
1
0
STYLE
5
11
100
AcDbSymbolTableRecord
100
AcDbTextStyleTableRecord
2
STANDARD
70
0
0
ENDTAB
0
TABLE
2
VIEW
5
6
100
AcDbSymbolTable
70
0
0
ENDTAB
0
TABLE
2
UCS
5
7
100
AcDbSymbolTable
70
0
0
ENDTAB
0
TABLE
2
APPID
5
9
100
AcDbSymbolTable
70
2
0
APPID
5
12
100
AcDbSymbolTableRecord
100
AcDbRegAppTableRecord
2
ACAD
70
0
0
ENDTAB
0
TABLE
2
DIMSTYLE
5
A
100
AcDbSymbolTable
70
1
0
ENDTAB
0
TABLE
2
BLOCK_RECORD
5
1
100
AcDbSymbolTable
70
1
0
BLOCK_RECORD
5
1F
100
AcDbSymbolTableRecord
100
AcDbBlockTableRecord
2
*MODEL_SPACE
0
BLOCK_RECORD
5
1B
100
AcDbSymbolTableRecord
100
AcDbBlockTableRecord
2
*PAPER_SPACE
0
ENDTAB
0
ENDSEC
0
SECTION
2
BLOCKS
0
BLOCK
5
20
100
AcDbEntity
100
AcDbBlockBegin
2
*MODEL_SPACE
0
ENDBLK
5
21
100
AcDbEntity
100
AcDbBlockEnd
0
BLOCK
5
1C
100
AcDbEntity
100
AcDbBlockBegin
2
*PAPER_SPACE
0
ENDBLK
5
1D
100
AcDbEntity
100
AcDbBlockEnd
0
ENDSEC
0
SECTION
2
ENTITIES
0
LWPOLYLINE
5
100
100
AcDbEntity
8
0
100
AcDbPolyline
90
16
70
1
43
0.0
10
-17.014366340811147
20
-27.862226916241912
10
17.014366340811144
20
-27.862226916241912
42
-0.10294337440352209
10
24.793115675970895
20
-29.480922188097715
10
32.596822429043122
20
-32.875701240305176
42
-1.0039742278714188
10
26.986327457329715
20
-45.772757816157096
10
24.294247133727829
20
-44.64610216971505
42
0.53568796290548781
10
18.749999999999996
20
-48.335993874084345
10
18.749999999999993
20
-71.503964833309198
42
-0.4142135623730947
10
15.250000000000002
20
-75.003964833309198
10
-15.250000000000002
20
-75.003964833309198
42
-0.41421356237309481
10
-18.749999999999996
20
-71.503964833309212
10
-18.749999999999996
20
-48.335993874084345
42
0.53568796290548781
10
-24.294247133727829
20
-44.64610216971505
10
-26.986327457329704
20
-45.772757816157096
42
-1.0039742278714259
10
-32.596822429043037
20
-32.875701240305133
10
-24.793115675970899
20
-29.480922188097722
42
-0.10294337440352019
0
LWPOLYLINE
5
101
100
AcDbEntity
8
0
100
AcDbPolyline
90
8
70
1
43
0.0
10
-10.000000000000002
20
-56.768532220824703
10
-10.000000000000002
20
-67.76853222082471
42
0.41421356237309503
10
-9.0000000000000053
20
-68.76853222082471
10
-5
20
-68.76853222082471
42
0.41421356237309503
10
-4.0000000000000044
20
-67.76853222082471
10
-4
20
-56.768532220824703
42
0.41421356237309503
10
-4.9999999999999964
20
-55.768532220824703
10
-9.0000000000000053
20
-55.768532220824703
42
0.41421356237309503
0
LWPOLYLINE
5
102
100
AcDbEntity
8
0
100
AcDbPolyline
90
8
70
1
43
0.0
10
3.9999999999999996
20
-56.76853222082471
10
3.9999999999999964
20
-67.76853222082471
42
0.41421356237309503
10
4.9999999999999929
20
-68.76853222082471
10
9.0000000000000053
20
-68.76853222082471
42
0.41421356237309503
10
9.9999999999999982
20
-67.76853222082471
10
10
20
-56.768532220824703
42
0.41421356237309503
10
9.0000000000000036
20
-55.768532220824703
10
4.9999999999999947
20
-55.76853222082471
42
0.41421356237309503
0
CIRCLE
5
103
100
AcDbEntity
8
0
100
AcDbCircle
10
15.249999999999996
20
-71.503964833309212
30
0
40
1.5500000000000003
210
0
220
0
230
1
0
CIRCLE
5
104
100
AcDbEntity
8
0
100
AcDbCircle
10
-8.5324744985789991
20
-34.68309587477556
30
0
40
1.5527488120280752
210
0
220
0
230
1
0
CIRCLE
5
105
100
AcDbEntity
8
0
100
AcDbCircle
10
-15.25
20
-71.503964833309212
30
0
40
1.5500000000000003
210
0
220
0
230
1
0
LWPOLYLINE
5
106
100
AcDbEntity
8
0
100
AcDbPolyline
90
2
70
1
43
0.0
10
-28.946184779837068
20
-40.617508976370971
42
-1.2061803019872512
10
-30.161392235179353
20
-37.824065727237461
42
-0.84414223922862486
0
CIRCLE
5
107
100
AcDbEntity
8
0
100
AcDbCircle
10
8.5324744985789991
20
-34.68309587477556
30
0
40
1.5527488120280752
210
0
220
0
230
1
0
LWPOLYLINE
5
108
100
AcDbEntity
8
0
100
AcDbPolyline
90
2
70
1
43
0.0
10
28.946184779842579
20
-40.617508976374566
42
-0.8441422392303547
10
30.161392235178972
20
-37.824065727237624
42
-1.2061803019847781
0
LWPOLYLINE
5
109
100
AcDbEntity
8
0
100
AcDbPolyline
90
20
70
1
43
0.0
10
-16.485767645355274
20
-38.975087295654077
42
-0.31783724519578194
10
-16.352509371105938
20
-39.163702156355512
10
-16.35496434218901
20
-45.331894796554984
42
-0.31783724519574436
10
-16.488372713485283
20
-45.520403522616697
42
0.31783724519577244
10
-16.755189456077826
20
-45.897420974740115
10
-16.755268819268444
20
-46.096823506028819
42
0.41421356237311452
10
-16.35542805290962
20
-46.496982676306857
10
-14.155428227158335
20
-46.497858287084604
42
0.4142135623731113
10
-13.755269056880298
20
-46.098017520725733
10
-13.755189693689648
20
-45.8986149893068
42
0.31783728758933161
10
-14.021706300263046
20
-45.521385247345421
42
-0.3178372875893582
10
-14.154964603549733
20
-45.332770376364735
10
-14.152509284513943
20
-39.163703493986972
42
-0.31783728758933766
10
-14.019100884172149
20
-38.975194757669136
42
0.31783728758933899
10
-13.752284083488535
20
-38.598177285033429
10
-13.75220441915851
20
-38.398018130596185
42
0.41421356237308365
10
-14.152045185517338
20
-37.997858960318197
10
-16.352045011267855
20
-37.996983349540443
42
0.41421356237307727
10
-16.752204181546336
20
-38.396824115899236
10
-16.75228419385396
20
-38.597857574251201
42
0.31783724519577317
0
LWPOLYLINE
5
110
100
AcDbEntity
8
0
100
AcDbPolyline
90
20
70
1
43
0.0
10
14.019100884172138
20
-38.975194757669122
42
-0.31783728758935526
10
14.152509284513936
20
-39.163703493986965
10
14.15496460354972
20
-45.332770376364742
42
-0.31783728758935414
10
14.021706300263038
20
-45.521385247345421
42
0.3178372875893411
10
13.755189693689641
20
-45.898614989306793
10
13.755269056880199
20
-46.098017520725747
42
0.41421356237309664
10
14.155428227158229
20
-46.497858287084611
10
16.35542805290919
20
-46.496982676306857
42
0.41421356237308027
10
16.755268819268437
20
-46.096823506028869
10
16.755189456077822
20
-45.897420974740115
42
0.31783724519576778
10
16.488372713485269
20
-45.520403522616704
42
-0.31783724519575657
10
16.354964342189
20
-45.331894796554984
10
16.352509371105924
20
-39.163702156355498
42
-0.31783724519579504
10
16.48576764535526
20
-38.975087295654056
42
0.31783724519577095
10
16.752284193853935
20
-38.597857574251194
10
16.752204181546325
20
-38.396824115899307
42
0.41421356237311452
10
16.352045011268309
20
-37.996983349540443
10
14.152045185517013
20
-37.99785896031819
42
0.41421356237309015
10
13.752204419158184
20
-38.398018130596192
10
13.752284083488533
20
-38.598177285033415
42
0.31783728758937035
0
ENDSEC
0
SECTION
2
OBJECTS
0
DICTIONARY
5
C
100
AcDbDictionary
3
ACAD_GROUP
350
D
3
ACAD_MLINESTYLE
350
17
0
DICTIONARY
5
D
100
AcDbDictionary
0
DICTIONARY
5
1A
330
C
100
AcDbDictionary
0
DICTIONARY
5
17
100
AcDbDictionary
0
ENDSEC
0
EOF
