0
SECTION
2
HEADER
9
$INSUNITS
70
4
9
$ACADVER
1
AC1014
9
$HANDSEED
5
FFFF
0
ENDSEC
0
SECTION
2
TABLES
0
TABLE
2
VPORT
5
8
100
AcDbSymbolTable
0
ENDTAB
0
TABLE
2
LTYPE
5
5
100
AcDbSymbolTable
0
LTYPE
5
14
100
AcDbSymbolTableRecord
100
AcDbLinetypeTableRecord
2
BYBLOCK
70
0
0
LTYPE
5
15
100
AcDbSymbolTableRecord
100
AcDbLinetypeTableRecord
2
BYLAYER
70
0
0
ENDTAB
0
TABLE
2
LAYER
5
2
100
AcDbSymbolTable
70
2
0
LAYER
5
50
100
AcDbSymbolTableRecord
100
AcDbLayerTableRecord
2
0
70
0
6
CONTINUOUS
0
ENDTAB
0
TABLE
2
STYLE
5
3
100
AcDbSymbolTable
70
1
0
STYLE
5
11
100
AcDbSymbolTableRecord
100
AcDbTextStyleTableRecord
2
STANDARD
70
0
0
ENDTAB
0
TABLE
2
VIEW
5
6
100
AcDbSymbolTable
70
0
0
ENDTAB
0
TABLE
2
UCS
5
7
100
AcDbSymbolTable
70
0
0
ENDTAB
0
TABLE
2
APPID
5
9
100
AcDbSymbolTable
70
2
0
APPID
5
12
100
AcDbSymbolTableRecord
100
AcDbRegAppTableRecord
2
ACAD
70
0
0
ENDTAB
0
TABLE
2
DIMSTYLE
5
A
100
AcDbSymbolTable
70
1
0
ENDTAB
0
TABLE
2
BLOCK_RECORD
5
1
100
AcDbSymbolTable
70
1
0
BLOCK_RECORD
5
1F
100
AcDbSymbolTableRecord
100
AcDbBlockTableRecord
2
*MODEL_SPACE
0
BLOCK_RECORD
5
1B
100
AcDbSymbolTableRecord
100
AcDbBlockTableRecord
2
*PAPER_SPACE
0
ENDTAB
0
ENDSEC
0
SECTION
2
BLOCKS
0
BLOCK
5
20
100
AcDbEntity
100
AcDbBlockBegin
2
*MODEL_SPACE
0
ENDBLK
5
21
100
AcDbEntity
100
AcDbBlockEnd
0
BLOCK
5
1C
100
AcDbEntity
100
AcDbBlockBegin
2
*PAPER_SPACE
0
ENDBLK
5
1D
100
AcDbEntity
100
AcDbBlockEnd
0
ENDSEC
0
SECTION
2
ENTITIES
0
LWPOLYLINE
5
100
100
AcDbEntity
8
0
100
AcDbPolyline
90
4
70
1
43
0.0
10
-4.979290840443432
20
64.159502471274408
10
-4.9792908404434346
20
80.159502471274436
42
0.99999999999999989
10
-6.979290840443432
20
80.159502471274436
10
-6.9792908404434337
20
64.159502471274408
42
0.99999999999999989
0
LWPOLYLINE
5
101
100
AcDbEntity
8
0
100
AcDbPolyline
90
4
70
1
43
0.0
10
4.979290840443432
20
80.159502471274408
42
-0.99999999999999989
10
6.9792908404434293
20
80.159502471274436
10
6.9792908404434204
20
64.159502471274408
42
-0.99999999999999989
10
4.9792908404434275
20
64.159502471274408
0
LWPOLYLINE
5
102
100
AcDbEntity
8
0
100
AcDbPolyline
90
40
70
1
43
0.0
10
15.250000000000055
20
93.43653437799361
42
-0.4142135623730952
10
18.75000000000005
20
89.93653437799361
10
18.75000000000005
20
44.383339439862411
42
0.57735026918962495
10
24.75000000000005
20
40.919237824724647
10
24.82678711432829
20
40.963570885852363
42
-0.99999999999999989
10
30.826787114328305
20
30.571266040439085
10
24.250000000000025
20
26.774156229578789
42
0.26794919243112275
10
18.750000000000043
20
17.247876787950002
10
18.750000000000039
20
-20.767216060196606
42
0.29858811916315042
10
25.363760241822337
20
-30.854876878432968
10
32.182086360655369
20
-33.819569451420918
42
-0.9999999925494194
10
27.397097451560867
20
-44.824290308391468
10
25.743745344626262
20
-44.105392352128575
42
0.5401342199933743
10
18.750000000000043
20
-48.690692724054188
10
18.749999999999883
20
-71.497388685640985
42
-0.41421356237309692
10
15.258214174326767
20
-74.989174511314076
10
13.499999999999982
20
-74.989174511314204
42
-0.41421356237309415
10
10
20
-71.489174511314218
10
9.9999999999999982
20
-60.989174511314076
42
0.41421356237309503
10
5.9999999999999964
20
-56.989174511314076
10
-5.999999999999992
20
-56.989174511314076
42
0.41421356237309515
10
-9.9999999999999964
20
-60.989174511314076
10
-10
20
-71.489174511314076
42
-0.41421356237309764
10
-13.500000000000018
20
-74.989174511314076
10
-15.258214174326802
20
-74.989174511314076
42
-0.41421356237309204
10
-18.750000000000039
20
-71.497388685640828
10
-18.750000000000039
20
-48.690692724054188
42
0.54013421999337352
10
-25.743745344626262
20
-44.105392352128575
10
-27.397097451560867
20
-44.824290308391468
42
-0.99999999999999989
10
-32.18208627866381
20
-33.819569415769976
10
-25.363760241822327
20
-30.854876878432968
42
0.29858811916315064
10
-18.750000000000039
20
-20.767216060196603
10
-18.750000000000043
20
17.247876787950005
42
0.26794919243112297
10
-24.250000000000036
20
26.774156229578804
10
-30.826787114328297
20
30.571266040439085
42
-0.99999999999999989
10
-24.826787114328297
20
40.963570885852363
10
-24.750000000000174
20
40.919237824724711
42
0.5773502691896365
10
-18.75000000000005
20
44.383339439862411
10
-18.75000000000005
20
89.93653437799361
42
-0.4142135623730947
10
-15.250000000000059
20
93.43653437799361
0
CIRCLE
5
103
100
AcDbEntity
8
0
100
AcDbCircle
10
-15.243443352879142
20
-71.497419927268055
30
0
40
1.549999999999998
210
0
220
-0
230
1
0
LWPOLYLINE
5
104
100
AcDbEntity
8
0
100
AcDbPolyline
90
20
70
1
43
0.0
10
-16.48576764535531
20
-56.975087295654063
42
-0.31783724519575152
10
-16.35250937110597
20
-57.163702156355512
10
-16.354964342189049
20
-63.331894796554991
42
-0.31783724519576856
10
-16.488372713485319
20
-63.520403522616689
42
0.31783724519576467
10
-16.755189456077865
20
-63.897420974740122
10
-16.755268819268476
20
-64.096823506028841
42
0.41421356237310153
10
-16.355428052909645
20
-64.496982676306857
10
-14.155428227158433
20
-64.497858287084597
42
0.41421356237309181
10
-13.755269056880341
20
-64.098017520725776
10
-13.755189693689678
20
-63.898614989306807
42
0.3178372875893582
10
-14.021706300263084
20
-63.521385247345421
42
-0.31783728758938606
10
-14.154964603549772
20
-63.332770376364721
10
-14.152509284513986
20
-57.163703493986972
42
-0.31783728758934132
10
-14.019100884172179
20
-56.975194757669129
42
0.31783728758935387
10
-13.752284083488579
20
-56.598177285033444
10
-13.752204419158229
20
-56.398018130596213
42
0.41421356237309825
10
-14.152045185517055
20
-55.997858960318197
10
-16.352045011268221
20
-55.996983349540443
42
0.4142135623730902
10
-16.752204181546372
20
-56.396824115899264
10
-16.752284193853988
20
-56.597857574251186
42
0.31783724519578815
0
LWPOLYLINE
5
105
100
AcDbEntity
8
0
100
AcDbPolyline
90
20
70
1
43
0.0
10
14.019100884172168
20
-38.975194757669122
42
-0.31783728758934254
10
14.152509284513968
20
-39.163703493986965
10
14.154964603549756
20
-45.332770376364735
42
-0.31783728758934021
10
14.021706300263068
20
-45.521385247345414
42
0.31783728758935148
10
13.755189693689669
20
-45.898614989306793
10
13.755269056880316
20
-46.09801752072574
42
0.4142135623731048
10
14.155428227158339
20
-46.497858287084597
10
16.355428052909641
20
-46.496982676306821
42
0.41421356237308854
10
16.755268819268462
20
-46.096823506028812
10
16.755189456077854
20
-45.897420974740101
42
0.31783724519577816
10
16.488372713485305
20
-45.520403522616689
42
-0.31783724519577555
10
16.354964342189028
20
-45.331894796554977
10
16.352509371105949
20
-39.163702156355491
42
-0.31783724519578316
10
16.485767645355295
20
-38.975087295654049
42
0.31783724519577139
10
16.752284193853967
20
-38.597857574251194
10
16.752204181546301
20
-38.396824115899257
42
0.41421356237309342
10
16.352045011268292
20
-37.996983349540436
10
14.152045185517041
20
-37.99785896031819
42
0.41421356237309015
10
13.752204419158216
20
-38.398018130596192
10
13.752284083488565
20
-38.598177285033415
42
0.3178372875893587
0
CIRCLE
5
106
100
AcDbEntity
8
0
100
AcDbCircle
10
15.243443352879142
20
-71.497419927268055
30
0
40
1.549999999999998
210
0
220
-0
230
1
0
CIRCLE
5
107
100
AcDbEntity
8
0
100
AcDbCircle
10
-27.826787114328297
20
35.767418463145724
30
0
40
1.5500000000000025
210
0
220
-0
230
1
0
LWPOLYLINE
5
108
100
AcDbEntity
8
0
100
AcDbPolyline
90
8
70
1
43
0.0
10
-15.999999999999998
20
24
42
-0.41421356237309503
10
-14.999999999999993
20
25.000000000000004
10
-14.000000000000005
20
25.000000000000004
42
-0.41421356237309503
10
-13
20
24
10
-12.999999999999998
20
3.0000000000000027
42
-0.41421356237309631
10
-14.000000000000002
20
1.9999999999999991
10
-15.000000000000002
20
2.0000000000000013
42
-0.41421356237309437
10
-16
20
3.0000000000000027
0
LWPOLYLINE
5
109
100
AcDbEntity
8
0
100
AcDbPolyline
90
8
70
1
43
0.0
10
14.999999999999993
20
25.000000000000007
42
-0.41421356237309503
10
16
20
24
10
16
20
2.9999999999999538
42
-0.4142135623730957
10
14.999999999999998
20
1.9999999999999529
10
13.999999999999996
20
1.9999999999999529
42
-0.41421356237309437
10
12.999999999999998
20
2.9999999999999538
10
13
20
24
42
-0.41421356237309503
10
14.000000000000005
20
25.000000000000004
0
CIRCLE
5
110
100
AcDbEntity
8
0
100
AcDbCircle
10
15.250000000000057
20
89.93653437799361
30
0
40
1.5500000000000003
210
0
220
-0
230
1
0
CIRCLE
5
111
100
AcDbEntity
8
0
100
AcDbCircle
10
-29.789591865112335
20
-39.321929862080722
30
0
40
1.549999999999998
210
0
220
-0
230
1
0
CIRCLE
5
112
100
AcDbEntity
8
0
100
AcDbCircle
10
-15.250000000000055
20
89.93653437799361
30
0
40
1.5500000000000003
210
0
220
-0
230
1
0
CIRCLE
5
113
100
AcDbEntity
8
0
100
AcDbCircle
10
7.2009488742530605
20
28.922301626943153
30
0
40
1.5460488038679865
210
0
220
-0
230
1
0
CIRCLE
5
114
100
AcDbEntity
8
0
100
AcDbCircle
10
-7.162528103072149
20
28.942676598336195
30
0
40
1.5533879639188675
210
0
220
-0
230
1
0
CIRCLE
5
115
100
AcDbEntity
8
0
100
AcDbCircle
10
-6.25
20
88.18653437799361
30
0
40
1.6000000000000014
210
0
220
0
230
1
0
CIRCLE
5
116
100
AcDbEntity
8
0
100
AcDbCircle
10
0
20
88.18653437799361
30
0
40
3.25
210
0
220
0
230
1
0
CIRCLE
5
117
100
AcDbEntity
8
0
100
AcDbCircle
10
6.25
20
88.18653437799361
30
0
40
1.6000000000000014
210
0
220
0
230
1
0
LWPOLYLINE
5
118
100
AcDbEntity
8
0
100
AcDbPolyline
90
4
70
1
43
0.0
10
7.0207091595565618
20
40.70940320450287
10
7.0207091595565609
20
56.709403204502863
42
0.99999999999999989
10
5.0207091595565565
20
56.709403204502863
10
5.0207091595565583
20
40.70940320450287
42
0.99999999999999989
0
LWPOLYLINE
5
119
100
AcDbEntity
8
0
100
AcDbPolyline
90
4
70
1
43
0.0
10
-6.9792908404434284
20
56.709403204502863
42
-0.99999999999999989
10
-4.9792908404434399
20
56.709403204502863
10
-4.9792908404434533
20
40.709403204502863
42
-0.99999999999999989
10
-6.9792908404434417
20
40.709403204502863
0
CIRCLE
5
120
100
AcDbEntity
8
0
100
AcDbCircle
10
27.826787114328297
20
35.767418463145724
30
0
40
1.5500000000000025
210
0
220
-0
230
1
0
CIRCLE
5
121
100
AcDbEntity
8
0
100
AcDbCircle
10
29.789591865112335
20
-39.321929862080722
30
0
40
1.549999999999998
210
0
220
-0
230
1
0
CIRCLE
5
122
100
AcDbEntity
8
0
100
AcDbCircle
10
8.5275354603903217
20
-34.690423067974542
30
0
40
1.5535059905823034
210
0
220
-0
230
1
0
LWPOLYLINE
5
123
100
AcDbEntity
8
0
100
AcDbPolyline
90
8
70
1
43
0.0
10
8.9999999999999947
20
-44.989174511314076
10
-9
20
-44.989174511314076
42
0.41421356237309503
10
-10.000000000000032
20
-45.989174511314076
10
-10.000000000000002
20
-46.989174511314076
42
0.41421356237309503
10
-9.0000000000000036
20
-47.989174511314076
10
9
20
-47.989174511314076
42
0.41421356237309503
10
10.000000000000014
20
-46.989174511314076
10
9.9999999999999964
20
-45.989174511314076
42
0.41421356237309503
0
LWPOLYLINE
5
124
100
AcDbEntity
8
0
100
AcDbPolyline
90
8
70
1
43
0.0
10
9.0000000000000053
20
-50.989174511314076
10
-9.0000000000000018
20
-50.989174511314076
42
0.41421356237309503
10
-9.9999999999999929
20
-51.989174511314076
10
-10
20
-52.989174511314076
42
0.41421356237309537
10
-9.0000000000000018
20
-53.989174511314069
10
9
20
-53.989174511314069
42
0.41421356237309503
10
10.000000000000014
20
-52.989174511314076
10
9.9999999999999982
20
-51.989174511314076
42
0.4142135623730947
0
CIRCLE
5
125
100
AcDbEntity
8
0
100
AcDbCircle
10
-8.553922379217628
20
-34.667187822910151
30
0
40
1.5761205002241774
210
0
220
-0
230
1
0
LWPOLYLINE
5
126
100
AcDbEntity
8
0
100
AcDbPolyline
90
20
70
1
43
0.0
10
13.752204419158174
20
-56.398018130596192
42
-0.41421356237309503
10
14.152045185517004
20
-55.997858960318183
10
16.352045011268309
20
-55.996983349540443
42
-0.41421356237310802
10
16.752204181546315
20
-56.396824115899292
10
16.752284193853928
20
-56.597857574251179
42
-0.31783724519577822
10
16.485767645355253
20
-56.975087295654056
42
0.31783724519580697
10
16.352509371105914
20
-57.163702156355498
10
16.354964342188989
20
-63.331894796554963
42
0.31783724519576473
10
16.488372713485262
20
-63.520403522616668
42
-0.31783724519578577
10
16.755189456077815
20
-63.897420974740115
10
16.755268819268007
20
-64.096823506028841
42
-0.41421356237307699
10
16.355428052909183
20
-64.496982676306828
10
14.1554282271583
20
-64.497858287084597
42
-0.41421356237309992
10
13.755269056880273
20
-64.098017520725762
10
13.755189693689633
20
-63.898614989306793
42
-0.31783728758934898
10
14.021706300263027
20
-63.521385247345414
42
0.31783728758938606
10
14.154964603549709
20
-63.332770376364721
10
14.152509284513929
20
-57.163703493986958
42
0.31783728758930846
10
14.019100884172126
20
-56.975194757669108
42
-0.31783728758934637
10
13.752284083488524
20
-56.598177285033429
0
LWPOLYLINE
5
127
100
AcDbEntity
8
0
100
AcDbPolyline
90
20
70
1
43
0.0
10
-16.755189456077819
20
-45.897420974740101
42
-0.31783724519578538
10
-16.488372713485266
20
-45.520403522616689
42
0.31783724519578654
10
-16.354964342189
20
-45.331894796554977
10
-16.352509371105924
20
-39.163702156355498
42
0.31783724519578194
10
-16.485767645355264
20
-38.975087295654063
42
-0.3178372451957775
10
-16.752284193853946
20
-38.597857574251194
10
-16.752204181546325
20
-38.396824115899271
42
-0.41421356237309503
10
-16.35204501126832
20
-37.996983349540436
10
-14.152045185517007
20
-37.99785896031819
42
-0.41421356237307877
10
-13.752204419158183
20
-38.398018130596178
10
-13.752284083488524
20
-38.598177285033415
42
-0.31783728758934698
10
-14.019100884172133
20
-38.975194757669122
42
0.31783728758934915
10
-14.152509284513934
20
-39.163703493986965
10
-14.154964603549722
20
-45.332770376364728
42
0.3178372875893582
10
-14.021706300263032
20
-45.521385247345407
42
-0.31783728758934138
10
-13.755189693689633
20
-45.898614989306793
10
-13.755269056879939
20
-46.098017520725705
42
-0.41421356237311613
10
-14.155428227157966
20
-46.497858287084583
10
-16.355428052909609
20
-46.496982676306843
42
-0.41421356237310153
10
-16.755268819268441
20
-46.096823506028827
0
ENDSEC
0
SECTION
2
OBJECTS
0
DICTIONARY
5
C
100
AcDbDictionary
3
ACAD_GROUP
350
D
3
ACAD_MLINESTYLE
350
17
0
DICTIONARY
5
D
100
AcDbDictionary
0
DICTIONARY
5
1A
330
C
100
AcDbDictionary
0
DICTIONARY
5
17
100
AcDbDictionary
0
ENDSEC
0
EOF
